<svg width="298" height="215" viewBox="0 0 298 215" fill="none" xmlns="http://www.w3.org/2000/svg">
<g clip-path="url(#clip0_0_196)">
<path opacity="0.1" d="M173.143 37.9169C154.039 37.2522 135.829 31.0769 118.467 24.322C101.105 17.5671 83.8967 10.0815 65.2397 6.50217C53.2443 4.19743 39.5258 3.87328 29.8626 10.3123C20.5615 16.5068 17.5571 27.2009 15.9411 37.1231C14.7257 44.5894 14.0205 52.4459 17.3431 59.437C19.6561 64.2882 23.7606 68.3675 26.6003 73.0154C36.4776 89.1871 29.4949 109.13 18.7891 124.934C13.7681 132.351 7.94326 139.408 4.06918 147.295C0.195091 155.181 -1.59928 164.216 1.79192 172.259C5.15293 180.226 13.159 186.22 21.8345 190.431C39.4545 198.977 60.216 201.422 80.4616 202.823C125.277 205.891 170.334 204.561 215.267 203.232C231.897 202.737 248.6 202.24 264.958 199.661C274.042 198.23 283.423 195.96 290.019 190.483C298.39 183.528 300.467 171.754 294.856 163.032C285.445 148.407 259.427 144.773 252.847 129.076C249.229 120.437 252.946 110.812 258.209 102.799C269.493 85.6105 288.414 70.5294 289.41 50.8801C290.096 37.384 281 23.8715 266.936 17.4847C252.197 10.7848 231.757 11.6308 220.883 22.704C209.687 34.1123 190.009 38.5021 173.143 37.9169Z" fill="#00B0FF"/>
<path d="M66.466 199.169C66.466 199.169 51.3758 187.747 48.5251 173.218C47.369 167.116 44.2682 161.554 39.6877 157.365C37.4964 155.395 35.1297 153.629 32.6172 152.091" stroke="#535461" stroke-width="2" stroke-miterlimit="10"/>
<path d="M30.7702 142.938C32.0927 144.729 32.6908 152.319 32.6908 152.319C32.6908 152.319 25.6203 149.531 24.2951 147.742C23.6588 146.883 23.3896 145.805 23.5468 144.747C23.704 143.688 24.2747 142.736 25.1333 142.099C25.992 141.461 27.0682 141.192 28.1254 141.349C29.1825 141.507 30.1339 142.078 30.7702 142.938Z" fill="#00B0FF"/>
<path d="M43.4521 148.893C43.5893 151.116 39.9759 157.813 39.9759 157.813C39.9759 157.813 35.5503 151.621 35.4104 149.399C35.3571 148.339 35.723 147.301 36.4287 146.51C37.1344 145.719 38.1231 145.238 39.1806 145.172C40.238 145.105 41.279 145.458 42.0781 146.155C42.8771 146.852 43.3698 147.835 43.4494 148.893H43.4521Z" fill="#00B0FF"/>
<path d="M55.7431 166.013C54.7444 168.001 48.2446 171.957 48.2446 171.957C48.2446 171.957 47.5504 164.375 48.5491 162.387C49.0408 161.451 49.8795 160.747 50.8848 160.424C51.8901 160.102 52.9816 160.187 53.9245 160.663C54.8674 161.138 55.5862 161.965 55.9263 162.965C56.2664 163.966 56.2006 165.06 55.7431 166.013Z" fill="#00B0FF"/>
<path d="M62.1339 181.055C61.4837 183.184 55.7466 188.181 55.7466 188.181C55.7466 188.181 53.7794 180.827 54.4297 178.696C54.7422 177.673 55.4478 176.816 56.3912 176.314C57.3346 175.812 58.4385 175.706 59.4602 176.019C60.4818 176.332 61.3375 177.038 61.8389 177.982C62.3403 178.927 62.4464 180.032 62.1339 181.055Z" fill="#00B0FF"/>
<path d="M33.4349 163.197C35.6299 163.494 42.5687 160.357 42.5687 160.357C42.5687 160.357 36.7136 155.5 34.5077 155.203C33.4489 155.061 32.377 155.345 31.5278 155.994C30.6785 156.643 30.1215 157.603 29.9793 158.663C29.837 159.723 30.1211 160.796 30.7692 161.647C31.4173 162.497 32.3762 163.055 33.4349 163.197Z" fill="#00B0FF"/>
<path d="M41.1303 180.698C43.3252 180.322 48.9964 175.254 48.9964 175.254C48.9964 175.254 41.9561 172.375 39.7639 172.751C39.239 172.837 38.7364 173.027 38.285 173.308C37.8337 173.59 37.4425 173.958 37.134 174.392C36.8256 174.826 36.6061 175.317 36.4881 175.836C36.3701 176.355 36.356 176.893 36.4465 177.417C36.5371 177.942 36.7306 178.444 37.0158 178.893C37.301 179.343 37.6724 179.731 38.1083 180.036C38.5443 180.341 39.0363 180.557 39.5559 180.67C40.0755 180.784 40.6124 180.793 41.1357 180.698H41.1303Z" fill="#00B0FF"/>
<path d="M50.9397 196.683C53.1648 196.683 59.6124 192.648 59.6124 192.648C59.6124 192.648 53.162 188.618 50.9369 188.618C49.8687 188.618 48.8442 189.043 48.0889 189.799C47.3335 190.555 46.9092 191.581 46.9092 192.65C46.9092 193.72 47.3335 194.746 48.0889 195.502C48.8442 196.258 49.8687 196.683 50.9369 196.683H50.9397Z" fill="#00B0FF"/>
<path d="M213.061 100.378C213.061 100.378 222.362 83.8826 236.382 79.1303C242.269 77.1728 247.364 73.3568 250.901 68.2549C252.561 65.8158 253.992 63.2291 255.179 60.5276" stroke="#535461" stroke-width="2" stroke-miterlimit="10"/>
<path d="M263.981 57.5059C262.384 59.0552 254.951 60.6594 254.951 60.6594C254.951 60.6594 256.776 53.27 258.373 51.7179C259.143 50.9954 260.167 50.6048 261.222 50.6303C262.278 50.6557 263.281 51.0951 264.016 51.8538C264.751 52.6126 265.16 53.63 265.153 54.6871C265.146 55.7442 264.725 56.7565 263.981 57.5059Z" fill="#00B0FF"/>
<path d="M259.777 70.8645C257.582 71.2986 250.484 68.601 250.484 68.601C250.484 68.601 256.027 63.3817 258.208 62.9559C258.732 62.8395 259.273 62.8291 259.801 62.9252C260.329 63.0213 260.832 63.222 261.282 63.5155C261.731 63.809 262.117 64.1894 262.417 64.6344C262.718 65.0794 262.926 65.5801 263.031 66.1069C263.136 66.6337 263.134 67.1761 263.026 67.7023C262.919 68.2285 262.707 68.7279 262.404 69.171C262.101 69.6142 261.712 69.9923 261.261 70.2831C260.81 70.5739 260.306 70.7716 259.777 70.8645Z" fill="#00B0FF"/>
<path d="M244.479 85.3357C242.377 84.6078 237.601 78.6852 237.601 78.6852C237.601 78.6852 245.009 76.9876 247.116 77.7156C247.622 77.8837 248.09 78.1508 248.492 78.5015C248.894 78.8522 249.223 79.2793 249.459 79.7582C249.695 80.2371 249.834 80.7582 249.867 81.2912C249.901 81.8242 249.828 82.3585 249.653 82.8631C249.479 83.3677 249.206 83.8326 248.85 84.2307C248.495 84.6289 248.064 84.9523 247.582 85.1824C247.101 85.4124 246.579 85.5444 246.046 85.5707C245.513 85.5971 244.981 85.5172 244.479 85.3357Z" fill="#00B0FF"/>
<path d="M230.42 93.6757C228.225 93.3131 222.529 88.2723 222.529 88.2723C222.529 88.2723 229.55 85.344 231.743 85.7066C232.798 85.8804 233.741 86.4667 234.364 87.3365C234.987 88.2064 235.24 89.2886 235.067 90.345C234.893 91.4014 234.307 92.3455 233.439 92.9696C232.57 93.5937 231.489 93.8467 230.434 93.673L230.42 93.6757Z" fill="#00B0FF"/>
<path d="M244.287 62.8241C244.284 65.0519 248.32 71.5156 248.32 71.5156C248.32 71.5156 252.351 65.0601 252.351 62.8351C252.365 62.2968 252.271 61.7612 252.075 61.2598C251.879 60.7584 251.585 60.3014 251.209 59.9158C250.834 59.5301 250.386 59.2236 249.89 59.0143C249.395 58.805 248.862 58.6972 248.324 58.6972C247.787 58.6972 247.254 58.805 246.759 59.0143C246.263 59.2236 245.815 59.5301 245.439 59.9158C245.064 60.3014 244.77 60.7584 244.574 61.2598C244.378 61.7612 244.284 62.2968 244.298 62.8351L244.287 62.8241Z" fill="#00B0FF"/>
<path d="M227.981 72.7847C228.645 74.9109 234.418 79.8692 234.418 79.8692C234.418 79.8692 236.338 72.5018 235.669 70.3756C235.322 69.3905 234.606 68.5787 233.673 68.1112C232.74 67.6437 231.662 67.5569 230.667 67.8692C229.671 68.1814 228.835 68.8683 228.335 69.7851C227.835 70.702 227.71 71.7774 227.986 72.7847H227.981Z" fill="#00B0FF"/>
<path d="M213.476 84.6435C213.772 86.8411 218.623 92.7115 218.623 92.7115C218.623 92.7115 221.753 85.7753 221.457 83.5695C221.398 83.035 221.233 82.5177 220.972 82.048C220.711 81.5783 220.358 81.1657 219.935 80.8344C219.512 80.5032 219.027 80.26 218.509 80.1191C217.99 79.9783 217.449 79.9426 216.917 80.0142C216.385 80.0858 215.872 80.2633 215.409 80.5362C214.947 80.8091 214.543 81.1719 214.222 81.6032C213.902 82.0345 213.671 82.5257 213.542 83.0478C213.414 83.57 213.391 84.1125 213.476 84.6435Z" fill="#00B0FF"/>
<path opacity="0.25" d="M263.981 57.5059C262.384 59.0552 254.951 60.6594 254.951 60.6594C254.951 60.6594 256.776 53.27 258.373 51.7179C259.143 50.9954 260.167 50.6048 261.222 50.6303C262.278 50.6557 263.281 51.0951 264.016 51.8538C264.751 52.6126 265.16 53.63 265.153 54.6871C265.146 55.7442 264.725 56.7565 263.981 57.5059Z" fill="black"/>
<path opacity="0.25" d="M259.777 70.8645C257.582 71.2986 250.484 68.601 250.484 68.601C250.484 68.601 256.027 63.3817 258.208 62.9559C258.732 62.8395 259.273 62.8291 259.801 62.9252C260.329 63.0213 260.832 63.222 261.282 63.5155C261.731 63.809 262.117 64.1894 262.417 64.6344C262.718 65.0794 262.926 65.5801 263.031 66.1069C263.136 66.6337 263.134 67.1761 263.026 67.7023C262.919 68.2285 262.707 68.7279 262.404 69.171C262.101 69.6142 261.712 69.9923 261.261 70.2831C260.81 70.5739 260.306 70.7716 259.777 70.8645Z" fill="black"/>
<path opacity="0.25" d="M244.479 85.3357C242.377 84.6078 237.601 78.6852 237.601 78.6852C237.601 78.6852 245.009 76.9876 247.116 77.7156C247.622 77.8837 248.09 78.1508 248.492 78.5015C248.894 78.8522 249.223 79.2793 249.459 79.7582C249.695 80.2371 249.834 80.7582 249.867 81.2912C249.901 81.8242 249.828 82.3585 249.653 82.8631C249.479 83.3677 249.206 83.8326 248.85 84.2307C248.495 84.6289 248.064 84.9523 247.582 85.1824C247.101 85.4124 246.579 85.5444 246.046 85.5707C245.513 85.5971 244.981 85.5172 244.479 85.3357Z" fill="black"/>
<path opacity="0.25" d="M230.42 93.6757C228.225 93.3131 222.529 88.2723 222.529 88.2723C222.529 88.2723 229.55 85.344 231.743 85.7066C232.798 85.8804 233.741 86.4667 234.364 87.3365C234.987 88.2064 235.24 89.2886 235.067 90.345C234.893 91.4014 234.307 92.3455 233.439 92.9696C232.57 93.5937 231.489 93.8467 230.434 93.673L230.42 93.6757Z" fill="black"/>
<path opacity="0.25" d="M244.287 62.8241C244.284 65.0519 248.32 71.5156 248.32 71.5156C248.32 71.5156 252.351 65.0601 252.351 62.8351C252.365 62.2968 252.271 61.7612 252.075 61.2598C251.879 60.7584 251.585 60.3014 251.209 59.9158C250.834 59.5301 250.386 59.2236 249.89 59.0143C249.395 58.805 248.862 58.6972 248.324 58.6972C247.787 58.6972 247.254 58.805 246.759 59.0143C246.263 59.2236 245.815 59.5301 245.439 59.9158C245.064 60.3014 244.77 60.7584 244.574 61.2598C244.378 61.7612 244.284 62.2968 244.298 62.8351L244.287 62.8241Z" fill="black"/>
<path opacity="0.25" d="M227.981 72.7847C228.645 74.9109 234.418 79.8692 234.418 79.8692C234.418 79.8692 236.338 72.5018 235.669 70.3756C235.322 69.3905 234.606 68.5787 233.673 68.1112C232.74 67.6437 231.662 67.5569 230.667 67.8692C229.671 68.1814 228.835 68.8683 228.335 69.7851C227.835 70.702 227.71 71.7774 227.986 72.7847H227.981Z" fill="black"/>
<path opacity="0.25" d="M213.476 84.6435C213.772 86.8411 218.623 92.7115 218.623 92.7115C218.623 92.7115 221.753 85.7753 221.457 83.5695C221.398 83.035 221.233 82.5177 220.972 82.048C220.711 81.5783 220.358 81.1657 219.935 80.8344C219.512 80.5032 219.027 80.26 218.509 80.1191C217.99 79.9783 217.449 79.9426 216.917 80.0142C216.385 80.0858 215.872 80.2633 215.409 80.5362C214.947 80.8091 214.543 81.1719 214.222 81.6032C213.902 82.0345 213.671 82.5257 213.542 83.0478C213.414 83.57 213.391 84.1125 213.476 84.6435Z" fill="black"/>
<path d="M213.596 100.051C213.596 100.051 215.423 81.196 226.304 71.1695C230.894 66.9908 234.007 61.4353 235.178 55.3357C235.71 52.4361 235.975 49.4936 235.97 46.5453" stroke="#535461" stroke-width="2" stroke-miterlimit="10"/>
<path d="M242.791 40.1832C241.968 42.249 235.811 46.7321 235.811 46.7321C235.811 46.7321 234.489 39.2355 235.32 37.1697C235.721 36.1778 236.498 35.3857 237.482 34.9677C238.465 34.5496 239.574 34.5398 240.565 34.9406C241.556 35.3413 242.347 36.1196 242.764 37.1043C243.182 38.0891 243.192 39.1995 242.791 40.1915V40.1832Z" fill="#00B0FF"/>
<path d="M244.358 54.116C242.539 55.3961 234.947 55.8164 234.947 55.8164C234.947 55.8164 237.905 48.8006 239.724 47.5204C240.155 47.1972 240.647 46.9639 241.17 46.8343C241.693 46.7048 242.237 46.6817 242.769 46.7663C243.301 46.8509 243.811 47.0416 244.268 47.3271C244.726 47.6125 245.121 47.9869 245.431 48.4281C245.741 48.8693 245.96 49.3683 246.074 49.8956C246.188 50.4229 246.195 50.9677 246.095 51.4978C245.995 52.028 245.79 52.5326 245.491 52.9818C245.193 53.4311 244.808 53.8158 244.358 54.1133V54.116Z" fill="#00B0FF"/>
<path d="M236.22 73.5594C234.003 73.7462 227.237 70.263 227.237 70.263C227.237 70.263 233.328 65.7029 235.545 65.5161C236.61 65.4265 237.666 65.764 238.482 66.4543C239.298 67.1446 239.807 68.1313 239.897 69.1971C239.986 70.263 239.649 71.3208 238.96 72.1379C238.27 72.9549 237.285 73.4643 236.22 73.5539V73.5594Z" fill="#00B0FF"/>
<path d="M226.752 86.8796C224.598 87.429 217.344 85.1572 217.344 85.1572C217.344 85.1572 222.576 79.633 224.73 79.0726C225.764 78.8041 226.862 78.9579 227.783 79.5001C228.704 80.0423 229.371 80.9286 229.64 81.9638C229.908 82.9991 229.754 84.0986 229.213 85.0205C228.671 85.9424 227.786 86.6111 226.752 86.8796Z" fill="#00B0FF"/>
<path d="M226.944 53.0502C227.843 55.0857 234.137 59.3683 234.137 59.3683C234.137 59.3683 235.208 51.8305 234.308 49.795C233.859 48.8426 233.056 48.1037 232.071 47.7359C231.086 47.3682 229.996 47.4009 229.034 47.8271C228.073 48.2532 227.316 49.039 226.925 50.0165C226.534 50.9941 226.541 52.0858 226.944 53.0584V53.0502Z" fill="#00B0FF"/>
<path d="M216.068 68.7686C217.536 70.4415 224.818 72.6336 224.818 72.6336C224.818 72.6336 223.588 65.1206 222.12 63.4477C221.774 63.0412 221.35 62.7078 220.874 62.4668C220.398 62.2257 219.878 62.0818 219.346 62.0435C218.814 62.0051 218.279 62.0731 217.773 62.2434C217.268 62.4136 216.801 62.6829 216.399 63.0354C215.998 63.388 215.671 63.8168 215.437 64.297C215.203 64.7772 215.067 65.2992 215.036 65.8326C215.005 66.366 215.081 66.9003 215.258 67.4043C215.435 67.9083 215.71 68.3721 216.068 68.7686Z" fill="#00B0FF"/>
<path d="M207.593 85.5034C208.756 87.3988 215.563 90.7914 215.563 90.7914C215.563 90.7914 215.621 83.1794 214.465 81.2812C213.89 80.4048 212.997 79.787 211.975 79.559C210.953 79.331 209.882 79.5107 208.99 80.0598C208.097 80.609 207.454 81.4846 207.196 82.5008C206.937 83.5171 207.085 84.594 207.606 85.5034H207.593Z" fill="#00B0FF"/>
<path d="M199.604 26.2092C200.059 24.5363 200.608 22.8551 200.992 21.1602C200.531 22.8551 199.979 24.5418 199.604 26.2092Z" fill="url(#paint0_linear_0_196)"/>
<path d="M197.562 42.3231C197.524 42.2572 197.496 42.1913 197.466 42.1308C197.466 42.1034 197.439 42.0814 197.428 42.0539C197.368 42.0821 197.306 42.1069 197.244 42.1281C197.123 42.1748 197 42.2187 196.873 42.2544C196.747 42.2901 196.695 42.3094 196.599 42.3313C196.519 42.3588 196.438 42.3799 196.355 42.3945L196.377 42.444C196.478 42.422 196.577 42.4028 196.679 42.3753L196.706 42.7159C196.821 42.7159 196.928 42.6995 197.033 42.6995C197.082 42.6967 197.131 42.6967 197.181 42.6995C197.395 42.6995 197.581 42.6995 197.729 42.6995C197.672 42.5758 197.611 42.4467 197.562 42.3231ZM253.259 131.087C251.969 129.348 249.396 110.685 249.396 110.685C249.396 110.685 244.334 97.4143 245.714 92.1181C247.094 86.8219 241.944 73.2709 241.944 73.2709C241.944 73.2709 238.542 71.7903 238.358 69.5926C238.358 69.5926 224.467 65.1974 223.816 61.901C223.29 59.198 214.674 57.2586 211.58 56.646C210.636 52.8332 209.686 49.2758 208.987 47.3337C208.797 46.7293 208.619 46.2074 208.454 45.7953C207.272 42.7736 203.617 42.4989 200.967 42.7407C200.852 42.2256 200.639 41.7378 200.339 41.304C200.295 41.1548 200.208 41.022 200.089 40.9221C200.032 40.8736 199.972 40.8295 199.908 40.7903C199.86 40.7012 199.797 40.6213 199.721 40.554C199.646 40.4861 199.563 40.4271 199.474 40.3782C199.411 40.3437 199.345 40.3134 199.277 40.2876C199.118 40.227 198.953 40.1819 198.786 40.153C198.59 40.1127 198.392 40.087 198.193 40.0761C198.677 39.864 199.109 39.5479 199.458 39.1503C199.695 38.8712 199.872 38.5456 199.976 38.1944C200.063 37.9023 200.102 37.5979 200.092 37.2933C200.021 37.4189 199.938 37.5375 199.845 37.6477C199.96 36.4308 199.318 35.1946 198.95 33.9832C198.505 32.4061 198.422 30.7484 198.709 29.1347C199.077 26.7009 199.987 24.2396 200.605 21.7618C200.606 21.7481 200.606 21.7342 200.605 21.7206C200.929 20.49 201.129 19.2302 201.203 17.9599C201.31 15.3969 200.654 12.8395 199.601 10.5045C198.665 8.43603 197.285 6.4005 195.172 5.55992C193.603 4.92536 191.844 5.027 190.154 4.92261C186.362 4.68637 182.746 3.35133 179.141 2.13715C175.536 0.922971 171.826 -0.181326 168.032 0.0301934C164.237 0.241713 160.333 2.07397 158.602 5.4363C158.053 6.48566 157.737 7.65314 157.082 8.63931C155.853 10.499 153.652 11.4303 151.817 12.7131C149.981 13.996 148.365 15.8172 147.701 17.9901C147.338 19.1608 147.287 20.4059 147.553 21.6024C147.613 21.8726 147.69 22.1387 147.783 22.3991C148.044 23.1249 148.45 23.7896 148.977 24.3522C149.374 24.768 149.831 25.1225 150.332 25.4043C150.962 25.7536 151.635 26.0161 152.335 26.1844C152.31 26.2669 152.286 26.3548 152.258 26.4399C152.214 26.58 152.176 26.7146 152.135 26.8657C152.044 27.2036 151.959 27.547 151.888 27.8931C151.885 27.9177 151.885 27.9426 151.888 27.9673C151.551 29.5297 151.382 31.1238 151.383 32.7223C151.382 33.4783 151.421 34.2338 151.498 34.9859C152.596 46.1332 161.787 54.9264 173.143 55.4978C173.533 55.517 173.925 55.528 174.323 55.528C174.504 55.528 174.682 55.528 174.872 55.528C175.05 55.7642 175.226 56.006 175.393 56.2422C175.56 56.4784 175.714 56.7202 175.859 56.9564L175.462 56.5444L175.064 56.179C174.956 56.3272 174.836 56.466 174.704 56.5938C174.445 56.5024 174.18 56.4272 173.911 56.3686C172.773 56.1158 171.039 56.0224 168.756 56.7119C166.657 57.341 164.092 58.6348 161.09 61.0934L146.464 69.8838L138.551 74.7021L135.7 81.6795C135.7 81.6795 133.557 89.9699 131.173 99.4691C131.08 99.4966 130.989 99.524 130.899 99.557C130.706 99.535 130.511 99.524 130.317 99.524C128.934 99.5208 127.603 100.054 126.604 101.013C125.606 101.971 125.017 103.28 124.961 104.664C120.22 110.432 119.951 116.201 121.065 118.849C121.166 119.097 121.293 119.334 121.444 119.555C122.174 120.61 123.537 123.33 124.92 126.228C124.885 126.467 124.863 126.667 124.852 126.818C124.849 126.868 124.849 126.917 124.852 126.967C124.852 126.967 125.675 139.413 122.931 142.982C122.33 143.759 122.421 144.781 122.931 145.913C124.769 149.984 132.037 155.42 132.037 155.42C132.037 155.42 140.754 155.373 145.61 154.843C145.597 155.332 145.586 155.818 145.575 156.294C145.465 161.095 145.465 165.12 145.465 165.12L145.284 170.155C145.284 170.155 143.638 180.767 142.815 183.692C142.296 185.527 142.894 202.518 143.415 215.008H229.298C230.308 207.619 228.884 185.167 228.884 185.167C228.884 185.167 227.531 179.363 227.482 174.303C227.479 174.297 227.478 174.291 227.478 174.285C227.478 174.279 227.479 174.273 227.482 174.267C227.482 173.825 227.482 173.394 227.498 172.971L228.121 172.949L229.241 172.91H229.342C229.342 172.91 229.37 172.806 229.433 172.636C229.581 172.211 229.783 171.808 230.034 171.435C230.511 170.729 231.257 170.037 232.379 169.99C232.999 169.966 233.96 169.463 235.044 168.721C235.051 168.723 235.058 168.723 235.065 168.721C237.982 166.746 241.837 163.101 242.773 162.502C244.059 161.678 250.222 156.184 250.222 156.184C250.222 156.184 251.141 155.019 252.12 153.615L252.156 153.566C253.374 151.808 254.669 149.706 254.351 149.044C253.802 147.858 254.719 145.02 254.719 145.02C257.58 139.776 254.548 132.826 253.259 131.087ZM200.204 46.5947C200.23 46.6767 200.247 46.7615 200.254 46.8474C200.185 46.7568 200.116 46.6606 200.048 46.5727L199.982 46.4848L199.935 46.4189L200.04 46.2761C200.04 46.2761 200.04 46.2761 200.04 46.2953C200.112 46.3843 200.168 46.4858 200.204 46.5947ZM199.282 44.1609C198.983 44.2213 198.747 44.2762 198.594 44.3174C198.399 43.9713 198.212 43.6252 198.045 43.2736C198.485 43.5291 198.899 43.8262 199.282 44.1609ZM198.767 44.5949C198.766 44.5894 198.766 44.5839 198.767 44.5784L198.788 44.5949C198.901 44.6691 199.011 44.7405 199.112 44.8146C199.203 44.8806 199.285 44.9438 199.367 45.0097C199.313 45.1058 199.252 45.2047 199.192 45.2844C199.096 45.1333 199.005 44.9877 198.917 44.8366C198.863 44.7762 198.813 44.6938 198.767 44.5949ZM197.12 41.2051C197.65 41.1527 198.184 41.1527 198.714 41.2051C198.788 41.2051 198.854 41.2188 198.92 41.2298C199.069 41.2528 199.215 41.2906 199.356 41.3424C199.681 41.7966 199.88 42.328 199.935 42.8835L199.787 42.9055L199.642 42.9329C199.367 42.9796 199.093 43.0263 198.879 43.0703L198.605 43.128C198.24 43.2076 198.028 43.2681 198.02 43.2708C197.985 43.1967 197.949 43.128 197.91 43.0566C197.85 42.9384 197.787 42.8176 197.732 42.6995C197.677 42.5813 197.606 42.4467 197.548 42.3231C197.51 42.2572 197.482 42.1913 197.452 42.1308C197.452 42.1034 197.425 42.0814 197.414 42.0539C197.398 42.0248 197.384 41.9945 197.373 41.9633C197.205 41.6226 197.052 41.282 196.904 40.9469C196.887 40.9139 196.873 40.8782 196.86 40.8452L197.068 40.8315V40.9029L197.12 41.2051ZM131.659 211.613C131.637 207.523 131.34 203.097 130.517 198.944C130.166 197.177 129.804 195.411 129.436 193.675C129.343 193.241 129.252 192.812 129.162 192.384L128.317 192.496H128.24C125.935 181.616 123.526 172.029 123.526 172.029C123.526 172.029 118.741 153.736 119.296 152.278C119.367 152.088 119.276 151.577 119.073 150.827C117.916 146.668 113.081 135.208 111.391 131.29C111.391 131.274 111.377 131.255 111.372 131.241C111.098 130.584 110.9 130.142 110.84 130.013L111.237 124.167L111.259 123.816L111.312 123.069L111.29 123.049L111.312 122.703C111.312 122.703 107.136 119.275 100.062 116.8C99.788 116.701 99.4972 116.605 99.2091 116.512C99.563 114.146 100.032 111.476 100.644 108.875C100.702 108.614 100.765 108.361 100.831 108.106C100.888 107.85 100.954 107.603 101.02 107.353C101.124 106.946 101.237 106.545 101.352 106.15C101.733 106.029 102.109 105.894 102.48 105.751L102.622 105.697C107.185 103.919 110.95 100.546 113.22 96.2025C115.49 91.859 116.112 86.8391 114.969 82.0723C114.317 79.3688 113.114 76.8296 111.435 74.6142C111.309 74.4439 111.174 74.2735 111.04 74.106C110.905 73.9384 110.744 73.7516 110.593 73.5813C111.386 71.7765 112.321 70.0596 112.398 68.3043C112.412 68.082 112.412 67.8591 112.398 67.6368V67.6093C112.296 66.4803 111.797 65.3375 110.634 64.1371C108.935 62.3763 106.518 61.4835 104.101 61.055C101.684 60.6264 99.2201 60.6154 96.7892 60.327C92.7587 59.8435 88.8325 58.5991 84.802 58.2173C79.8375 57.757 74.8394 58.6095 70.3071 60.6896C67.3083 62.0631 64.271 64.464 64.0899 67.7576C63.9418 70.4799 65.8349 73.0896 65.3575 75.7789C64.8829 78.4215 62.194 80.501 62.43 83.1739C62.5205 84.2177 63.0556 85.1517 63.725 85.984C63.9555 86.2587 64.1997 86.5334 64.4521 86.8081C65.4289 87.8438 66.5044 88.8382 67.0504 90.143C67.0723 90.1979 67.0943 90.2529 67.1135 90.3078C67.5772 91.5962 67.3686 93.2251 66.2218 93.9641C66.2281 93.969 66.2329 93.9757 66.2355 93.9833C66.252 94.0053 66.2684 94.0218 66.2821 94.0438C66.2838 94.0393 66.2838 94.0344 66.2821 94.03C66.6888 94.5127 67.2369 94.8549 67.8488 95.0079L68.082 95.0794C67.8927 95.2854 67.7143 95.4997 67.5333 95.7249L67.4153 95.8815C67.1129 96.2885 66.8379 96.7153 66.5922 97.1589C66.4522 97.4061 66.3178 97.6533 66.2053 97.9006C65.8292 98.6542 65.5569 99.4553 65.3959 100.282C65.1024 102.101 65.5166 103.996 65.0722 105.776C64.5234 107.974 62.7867 109.66 61.8072 111.702C59.9525 115.547 61.0033 120.061 61.3764 124.308C61.884 130.076 61.0609 135.87 60.2405 141.6C59.8052 144.647 59.3699 147.697 58.9345 150.75C57.8371 158.413 56.7396 166.075 55.6421 173.737C55.2415 176.545 54.7669 179.506 52.8984 181.673H52.9176C52.9176 181.673 52.9176 181.69 52.8984 181.695C53.4593 181.941 54.0559 182.095 54.6654 182.151C57.1045 182.396 59.6891 181.215 61.884 179.923C63.6223 178.918 65.2685 177.76 66.8034 176.465C66.5785 177.289 66.337 178.187 66.0791 179.154C66.08 179.163 66.08 179.173 66.0791 179.182C62.9815 190.994 57.9989 212.649 57.9989 212.649C57.9989 212.649 57.5462 213.591 56.9591 214.994H134.331C133.426 213.896 132.583 212.844 131.925 211.995L131.659 211.613ZM74.3705 102.392C74.3897 102.359 74.4034 102.329 74.4227 102.299C74.4227 102.386 74.4227 102.472 74.4227 102.554C74.4227 102.636 74.4227 102.711 74.4227 102.787C74.4227 102.864 74.4227 102.856 74.4227 102.895C74.4227 102.933 74.4227 102.895 74.4227 102.895C74.4227 103.007 74.398 103.12 74.3788 103.232C74.3788 103.232 74.3788 103.246 74.3788 103.257L74.6531 103.359L74.9714 103.491C76.8517 104.234 78.7559 104.907 80.6837 105.51C80.8813 105.573 81.0816 105.633 81.2819 105.691L81.323 106.032C81.3724 106.381 81.4191 106.735 81.463 107.089C81.463 107.089 81.463 107.106 81.463 107.117C81.5864 108.097 81.7071 109.075 81.8141 110.031C81.8141 110.031 76.7767 108.108 76.8398 111.028C76.837 111.081 76.837 111.133 76.8398 111.185C76.8343 111.255 76.8343 111.324 76.8398 111.394C76.8865 113.668 77.5971 115.017 77.7398 115.709C77.7312 115.738 77.7162 115.764 77.6959 115.786C77.5741 116.052 77.5322 116.346 77.5751 116.635C77.5704 117.127 77.6089 117.617 77.6904 118.102C77.5422 118.193 77.3968 118.283 77.2514 118.377C77.1416 118.445 77.0374 118.522 76.9304 118.599C76.2573 116.262 75.3767 113.989 74.2992 111.809C73.5447 110.254 72.6969 108.633 72.7051 106.927C72.7051 106.817 72.7051 106.705 72.7188 106.592C72.7494 106.098 72.8435 105.609 72.9987 105.139C73.0618 104.96 73.1304 104.785 73.2072 104.611C73.3865 104.2 73.5871 103.799 73.8081 103.408C73.9507 103.15 74.1016 102.895 74.2471 102.636C74.2937 102.559 74.3376 102.48 74.3815 102.403L74.3705 102.392ZM197.562 42.3231C197.524 42.2572 197.496 42.1913 197.466 42.1308C197.466 42.1034 197.439 42.0814 197.428 42.0539C197.368 42.0821 197.306 42.1069 197.244 42.1281C197.123 42.1748 197 42.2187 196.873 42.2544C196.747 42.2901 196.695 42.3094 196.599 42.3313L196.355 42.3945L196.377 42.444C196.478 42.422 196.577 42.4028 196.679 42.3753L196.706 42.7159C196.821 42.7159 196.928 42.6995 197.033 42.6995H197.181C197.395 42.6995 197.581 42.6995 197.729 42.6995C197.672 42.5758 197.611 42.4467 197.562 42.3231Z" fill="url(#paint1_linear_0_196)"/>
<path d="M137.612 82.6712L135.966 83.3992C135.966 83.3992 125.235 125.137 125.235 128.511C125.235 131.884 147.989 150.654 147.989 150.654L151.539 126.662C151.539 126.662 146.441 71.642 137.612 82.6712Z" fill="#E8F5FF"/>
<path d="M187.523 69.3949L178.016 64.4283C177.484 62.1556 176.539 60 175.229 58.069C173.838 56.0582 171.988 54.0831 169.684 53.0529C163.859 50.4378 194.322 36.711 194.322 36.711C194.802 38.36 195.367 39.9829 196.015 41.5732C197.584 45.452 200.188 50.468 203.543 51.8965C209.248 54.3276 187.523 69.3949 187.523 69.3949Z" fill="#FFC1C7"/>
<path opacity="0.1" d="M196.015 41.5732C194.713 46.1566 192.006 50.2147 188.277 53.1746C184.547 56.1345 179.983 57.8465 175.229 58.069C173.838 56.0581 171.988 54.0831 169.684 53.0529C163.859 50.4378 194.322 36.711 194.322 36.711C194.802 38.36 195.367 39.9829 196.015 41.5732Z" fill="black"/>
<path d="M196.871 34.6425C196.872 39.1376 195.541 43.5321 193.048 47.2702C190.554 51.0082 187.009 53.9219 182.862 55.6428C178.714 57.3636 174.15 57.8143 169.746 56.9378C165.343 56.0613 161.298 53.897 158.123 50.7187C154.948 47.5403 152.786 43.4907 151.91 39.0819C151.034 34.6732 151.483 30.1034 153.202 25.9505C154.92 21.7976 157.83 18.2481 161.563 15.7511C165.296 13.254 169.685 11.9215 174.175 11.922C177.159 11.9082 180.116 12.4864 182.876 13.6233C185.635 14.7602 188.143 16.4332 190.253 18.5457C192.363 20.6582 194.035 23.1684 195.17 25.9312C196.306 28.694 196.884 31.6548 196.871 34.6425Z" fill="#FFC1C7"/>
<path d="M200.147 66.4776L193.957 80.9378L188.497 90.5358H171.02L165.922 77.4134L167.988 63.8047H181.336L189.954 63.3185L192.865 62.3461L194.742 63.4119L200.147 66.4776Z" fill="#575A89"/>
<path opacity="0.1" d="M198.015 47.2018C198.015 47.2018 201.875 48.0259 198.418 50.8636C194.961 53.7012 183.034 62.7252 183.034 62.7252C183.034 62.7252 187.224 66.4611 186.357 70.8371L200.237 63.0905L202.706 50.696C202.706 50.696 202.984 46.9711 198.015 47.2018Z" fill="black"/>
<path opacity="0.1" d="M185.764 62.7252L176.935 64.1838C176.935 64.1838 178.757 70.9277 177.846 72.8424C177.818 72.9019 177.795 72.9634 177.777 73.0264L174.175 82.7756L176.875 90.4315L186.22 77.6716L183.034 72.8424C183.034 72.8424 186.401 68.3757 188.404 66.8264C190.406 65.2771 185.764 62.7252 185.764 62.7252Z" fill="black"/>
<path d="M185.764 62.3488L176.935 63.8047C176.935 63.8047 178.757 70.5486 177.846 72.4633C177.818 72.5228 177.795 72.5843 177.777 72.6473L174.175 82.3965L176.875 90.0524L186.22 77.2843L183.034 72.4551C183.034 72.4551 186.401 67.9884 188.404 66.4391C190.406 64.8898 185.764 62.3488 185.764 62.3488Z" fill="#DCE6F2"/>
<path d="M198.385 46.4739C198.385 46.4739 202.245 47.298 198.786 50.1356C195.326 52.9733 183.034 62.7252 183.034 62.7252C183.034 62.7252 187.586 65.7331 186.722 70.1064L200.602 62.3625L203.071 49.9681C203.071 49.9681 203.346 46.2431 198.385 46.4739Z" fill="#575A89"/>
<path opacity="0.1" d="M175.835 58.9288C175.835 58.9288 176.677 60.5056 180.395 63.3488C180.395 63.3488 174.205 66.6452 176.573 71.2794L167.104 68.8071L165.647 64.2498L175.835 58.9288Z" fill="black"/>
<path d="M175.47 58.5662C175.47 58.5662 176.312 60.143 180.03 62.9862C180.03 62.9862 173.84 66.2661 176.208 70.914L166.742 68.4417L165.285 63.8872L175.47 58.5662Z" fill="#575A89"/>
<path opacity="0.1" d="M200.147 66.4776L193.957 80.9378L188.508 90.5359H171.02L165.922 77.4134L167.985 63.8047H171.697C171.637 66.9803 172.795 70.7107 172.721 72.098C172.595 74.378 176.117 86.6791 176.117 86.6791C176.117 86.6791 183.49 74.7406 186.401 73.6775C188.231 73.01 192.108 67.4555 194.739 63.4119L200.147 66.4776Z" fill="black"/>
<path d="M224.53 142.572L223.901 143.364C223.901 143.364 228.453 166.238 227.194 171.432C226.98 172.369 226.857 173.324 226.829 174.284V174.325C226.607 179.61 228.201 186.47 228.201 186.47C228.201 186.47 229.474 206.688 228.749 215.003H143.525C143.026 202.707 142.488 186.777 142.976 185.011C143.799 182.096 145.446 171.523 145.446 171.523L145.627 166.513C145.627 166.513 145.627 161.67 145.775 156.274C145.838 153.849 145.931 151.302 146.066 149.044C146.239 146.204 146.48 143.811 146.812 142.636C147.016 141.744 147.134 140.835 147.163 139.922C147.163 139.836 147.163 139.748 147.18 139.661C147.18 139.386 147.207 139.089 147.218 138.784C147.218 138.699 147.218 138.614 147.218 138.51C147.27 136.741 147.251 134.642 147.193 132.466C147.193 132.348 147.193 132.227 147.193 132.106C147.147 130.475 147.078 128.81 147.001 127.228C146.763 122.283 146.453 118.102 146.453 118.102L135.985 83.3799L138.806 76.4245L146.634 71.6227L161.107 62.8735C168.166 57.0636 172.814 57.7613 174.586 58.3986C174.758 58.4574 174.927 58.5262 175.091 58.6046C175.146 58.6321 175.19 58.6541 175.231 58.6788C175.287 58.7055 175.342 58.7368 175.393 58.7722C174.908 59.006 174.486 59.3537 174.164 59.7859C173.801 60.2776 173.542 60.8385 173.404 61.4341C173.311 61.8032 173.246 62.1788 173.209 62.5576C173.173 62.9559 173.16 63.368 173.16 63.7828C173.179 64.6924 173.257 65.5999 173.393 66.4995C173.393 66.516 173.393 66.538 173.393 66.56C173.483 67.2028 173.596 67.8318 173.706 68.4224C173.704 68.4325 173.704 68.4426 173.706 68.4527C173.832 69.1422 173.958 69.7795 174.043 70.3289C174.059 70.4278 174.073 70.5184 174.087 70.6036C174.147 70.9666 174.176 71.3343 174.172 71.7024C174.203 72.5911 174.322 73.4745 174.529 74.3395C174.6 74.7021 174.682 75.0894 174.773 75.4932C174.896 76.0426 175.031 76.6415 175.176 77.2513C175.256 77.5865 175.341 77.9326 175.429 78.276C175.462 78.4133 175.497 78.5507 175.53 78.6908L175.585 78.9078C176.169 81.2345 176.803 83.5502 177.193 84.9512C177.423 85.7753 177.569 86.2835 177.569 86.2835C177.569 86.2835 181.701 79.5945 184.999 75.7872C185.048 75.7322 185.092 75.68 185.138 75.6306C185.465 75.2543 185.786 74.9109 186.093 74.6087C186.765 73.9384 187.369 73.4605 187.855 73.2846C187.958 73.2466 188.058 73.1998 188.154 73.1446C189.504 72.3781 191.682 69.5954 193.721 66.6808C193.921 66.4061 194.116 66.1067 194.313 65.8238C194.766 65.17 195.205 64.5135 195.619 63.8844C195.938 63.4037 196.242 62.9367 196.53 62.4917C197.902 60.3545 198.868 58.7612 198.868 58.7612L200.772 58.6761L201.104 58.6596H201.326L209.972 58.2585C209.972 58.2585 210.345 58.3217 210.959 58.4453C210.992 58.4453 211.025 58.4453 211.061 58.4673C214.128 59.0771 222.65 61.0083 223.171 63.6866C223.808 66.9665 237.554 71.3425 237.554 71.3425C237.735 73.5401 241.101 74.9878 241.101 74.9878C241.101 74.9878 246.199 88.4756 244.836 93.7608C243.488 98.9802 248.342 111.891 248.471 112.254L247.541 113.429L224.53 142.572Z" fill="#E8F5FF"/>
<path opacity="0.1" d="M198.012 46.2431C198.012 46.2431 206.427 43.8532 208.339 48.7731C210.251 53.693 214.529 73.5621 214.529 73.5621C214.529 73.5621 203.422 75.6581 200.511 73.5621C198.804 72.3182 196.69 71.7649 194.593 72.0128L188.313 76.2954L186.458 75.746C186.458 75.746 196.505 60.7913 198.689 55.7093C200.873 50.6273 201.611 48.3556 198.012 46.2431Z" fill="black"/>
<path d="M197.647 45.1443C197.647 45.1443 206.068 42.7544 207.988 47.6743C209.909 52.5942 214.178 72.4633 214.178 72.4633C214.178 72.4633 203.074 74.5593 200.16 72.4633C198.454 71.2193 196.341 70.666 194.245 70.914L187.959 75.1966L186.104 74.6472C186.104 74.6472 196.152 59.6925 198.336 54.6105C200.52 49.5285 201.247 47.2622 197.647 45.1443Z" fill="#E8F5FF"/>
<path opacity="0.1" d="M141.163 124.409C141.163 124.409 147.443 125.958 148.628 129.513C149.813 133.068 143.986 133.158 143.986 133.158C143.986 133.158 140.436 126.87 141.163 124.409Z" fill="black"/>
<path opacity="0.1" d="M164.555 150.654C164.555 150.654 149.174 182.187 152.724 185.195C156.275 188.203 164.555 150.654 164.555 150.654Z" fill="black"/>
<path opacity="0.1" d="M185.764 127.417C185.764 127.417 198.053 158.046 195.594 162.777C193.136 167.507 200.873 162.777 200.873 162.777L185.764 127.417Z" fill="black"/>
<path d="M202.876 157.673C202.876 157.673 161.37 159.678 173.477 172.619C185.585 185.56 210.432 173.169 210.432 173.169L202.876 157.673Z" fill="#FFC1C7"/>
<path opacity="0.1" d="M196.87 34.6425C196.874 37.6231 196.29 40.575 195.15 43.3285C194.769 43.3725 194.387 43.4 194.02 43.4165C193.471 42.2105 193.765 40.8178 193.776 39.491C193.787 38.1642 193.298 36.6039 192.022 36.2468C189.479 35.5298 187.723 40.2904 185.215 39.4305C183.295 38.7768 183.797 35.8594 182.691 34.1755C181.816 32.8432 180.063 32.4669 178.699 31.6318C175.799 29.849 175.887 26.9976 174.54 24.3C173.129 21.4734 170.15 22.3084 167.562 23.9759C165.598 25.245 163.902 26.9454 161.801 27.9563C159.982 28.8353 157.938 29.154 155.921 29.2007C154.679 29.2489 153.437 29.1175 152.233 28.8106C153.65 23.4797 156.954 18.8466 161.531 15.7752C166.107 12.7037 171.643 11.4037 177.106 12.1175C182.57 12.8314 187.587 15.5103 191.223 19.6548C194.859 23.7992 196.865 29.1263 196.868 34.6425H196.87Z" fill="black"/>
<path d="M167.571 23.2479C165.604 24.517 163.911 26.2147 161.809 27.2311C159.99 28.1074 157.946 28.426 155.93 28.4727C153.46 28.5277 150.802 28.0936 149.114 26.3081C147.564 24.6599 147.194 22.1244 147.849 19.9625C148.505 17.8006 150.077 16.0068 151.924 14.7075C153.77 13.4081 155.913 12.5099 157.137 10.6501C157.784 9.6667 158.097 8.50746 158.635 7.46086C160.355 4.11225 164.224 2.29923 167.963 2.07397C171.703 1.84872 175.41 2.964 178.971 4.17269C182.532 5.38137 186.121 6.71092 189.88 6.9609C191.554 7.06529 193.293 6.9609 194.846 7.59546C196.934 8.44428 198.303 10.4743 199.236 12.5401C200.281 14.8695 200.932 17.4133 200.822 19.957C200.591 25.3878 197.008 30.717 198.583 35.9198C199 37.3071 199.782 38.73 199.365 40.1173C198.756 42.1418 196.147 42.6033 194.037 42.6995C193.488 41.4935 193.782 40.098 193.792 38.774C193.803 37.4499 193.315 35.8869 192.042 35.5298C189.496 34.8183 187.74 39.5706 185.238 38.7136C183.331 38.057 183.825 35.1424 182.716 33.4585C181.841 32.1235 180.085 31.7499 178.724 30.9148C175.824 29.132 175.912 26.2806 174.565 23.583C173.144 20.7426 170.161 21.5777 167.571 23.2479Z" fill="#99607E"/>
<path d="M127.324 127.78L125.23 128.51C125.23 128.51 126.053 140.905 123.31 144.46C120.566 148.014 132.32 156.851 132.32 156.851C132.32 156.851 148.431 156.761 148.886 155.478C149.342 154.195 148.063 132.513 148.063 132.513C148.063 132.513 139.415 129.14 140.142 123.764C140.142 123.764 137.503 136.43 133.59 135.883C129.678 135.337 125.236 132.065 127.324 127.78Z" fill="#E8F5FF"/>
<path opacity="0.1" d="M134.306 139.718C137.357 139.718 139.829 137.454 139.829 134.661C139.829 131.868 137.357 129.604 134.306 129.604C131.256 129.604 128.783 131.868 128.783 134.661C128.783 137.454 131.256 139.718 134.306 139.718Z" fill="black"/>
<path d="M140.345 128.145C140.345 128.145 139.248 94.6097 129.694 102.082C120.14 109.553 120.047 118.489 121.866 121.129C123.685 123.769 129.518 136.985 129.518 136.985C130.431 137.514 131.456 137.82 132.509 137.876C133.562 137.933 134.613 137.739 135.577 137.31C136.54 136.881 137.389 136.23 138.053 135.409C138.717 134.589 139.177 133.623 139.396 132.59L140.345 128.145Z" fill="#FFC1C7"/>
<path opacity="0.1" d="M199.941 43.1994C199.896 43.0521 199.81 42.9206 199.694 42.8204C199.222 42.3891 198.207 42.238 196.676 42.3699L196.739 43.0951C198.78 42.9193 199.183 43.3258 199.236 43.3945V43.4632L199.299 43.5538C199.553 43.8963 199.733 44.2882 199.828 44.7045C199.922 45.1208 199.929 45.5522 199.847 45.9712C199.4 48.21 196.654 49.9928 196.626 50.012L196.56 50.0505L196.519 50.1137C195.334 51.8745 188.631 56.8438 186.878 58.1294L186.724 57.9536C185.94 58.6349 179.042 64.681 178.669 66.9968C178.427 68.4499 176.792 69.0131 176.2 69.1697C175.574 68.6944 173.544 67.0764 172.487 65.2634C171.497 63.5575 175.483 60.2281 175.835 58.9288L175.286 58.3657C175.228 58.5744 170.109 63.3652 171.533 65.8128C172.674 67.7769 174.759 69.4581 175.489 70.013C175.256 72.1337 173.804 84.5859 171.574 87.5361C168.803 91.2034 166.473 109.685 166.731 116.138C166.959 121.871 165.463 132.7 160.47 137.35C159.605 138.191 158.563 138.825 157.419 139.205C156.275 139.586 155.061 139.703 153.866 139.548H153.806H153.745C153.674 139.548 146.431 140.29 140.345 135.153C135.365 130.958 132.545 124.113 131.958 114.8H131.837L131.787 112.089C133.138 111.878 134.354 111.151 135.18 110.061C136.006 108.972 136.378 107.604 136.218 106.245C136.058 104.886 135.378 103.642 134.322 102.775C133.265 101.907 131.913 101.484 130.551 101.593C129.189 101.702 127.922 102.336 127.017 103.361C126.111 104.386 125.638 105.722 125.696 107.089C125.754 108.456 126.339 109.747 127.328 110.691C128.317 111.635 129.633 112.159 131 112.152H131.06L131.11 114.847L130.868 114.863C131.472 124.478 134.435 131.59 139.648 135.982C143.61 139.27 148.672 140.928 153.808 140.622C154.173 140.662 154.539 140.682 154.906 140.682C157.26 140.695 159.526 139.782 161.216 138.142C166.476 133.238 168.075 122.011 167.826 116.083C167.551 109.246 169.996 91.4286 172.449 88.1844C174.852 85.0007 176.309 72.5952 176.564 70.1915C177.434 69.9471 179.401 69.1751 179.736 67.1698C179.978 65.7194 184.584 61.25 187.418 58.775L187.333 58.6761C188.859 57.5608 193.603 54.0446 195.954 51.7866C196.684 51.0861 197.408 50.3856 198.165 49.7181C199.076 48.9105 200.234 47.6276 200.539 46.1113C200.643 45.6107 200.643 45.0942 200.54 44.5935C200.437 44.0927 200.233 43.6183 199.941 43.1994Z" fill="black"/>
<path d="M175.396 69.8399C175.281 69.7603 172.548 67.8016 171.179 65.4447C169.758 62.9971 174.877 58.2091 174.932 58.0003L175.481 58.5634C175.133 59.86 171.146 63.1922 172.136 64.8953C173.385 67.0462 176.013 68.9279 176.041 68.9471L175.396 69.8399Z" fill="#353146"/>
<path d="M186.521 58.6623L186.093 58.0717C186.181 58.0086 194.798 51.7674 196.157 49.7483L196.201 49.6879L196.264 49.6467C196.291 49.6274 199.038 47.8474 199.485 45.6058C199.567 45.1873 199.561 44.7561 199.466 44.3402C199.372 43.9242 199.191 43.5328 198.936 43.1912L198.873 43.0978V43.0319C198.818 42.9605 198.415 42.5566 196.373 42.7325L196.31 42.0045C197.844 41.8726 198.856 42.0237 199.328 42.455C199.446 42.5562 199.532 42.6886 199.578 42.8368C199.875 43.2545 200.083 43.7286 200.189 44.2299C200.296 44.7311 200.299 45.249 200.198 45.7514C199.894 47.2705 198.738 48.5534 197.825 49.3582C197.07 50.0258 196.343 50.7317 195.616 51.4267C192.859 54.0721 186.823 58.4453 186.521 58.6623Z" fill="#E8F5FF"/>
<path d="M131.433 111.132L130.706 111.146L130.787 115.57L131.514 115.557L131.433 111.132Z" fill="#E8F5FF"/>
<path d="M130.646 111.803C133.578 111.803 135.955 109.423 135.955 106.488C135.955 103.552 133.578 101.172 130.646 101.172C127.714 101.172 125.337 103.552 125.337 106.488C125.337 109.423 127.714 111.803 130.646 111.803Z" fill="#00B0FF"/>
<path d="M130.646 110.902C133.082 110.902 135.056 108.926 135.056 106.488C135.056 104.05 133.082 102.073 130.646 102.073C128.211 102.073 126.237 104.05 126.237 106.488C126.237 108.926 128.211 110.902 130.646 110.902Z" fill="#E8F5FF"/>
<path d="M154.56 140.328C154.193 140.329 153.827 140.309 153.462 140.27C148.326 140.573 143.266 138.915 139.302 135.631C134.089 131.236 131.132 124.132 130.522 114.509L131.62 114.44C132.207 123.753 135.028 130.601 140.01 134.793C146.096 139.916 153.336 139.188 153.408 139.188H153.468H153.528C154.724 139.342 155.938 139.225 157.082 138.844C158.226 138.464 159.27 137.83 160.135 136.99C165.126 132.34 166.621 121.511 166.393 115.778C166.119 109.32 168.448 90.838 171.222 87.1735C173.65 83.9623 175.157 69.4883 175.173 69.3427L175.214 68.9306L175.62 68.8592C175.645 68.8592 178.016 68.4087 178.312 66.6342C178.696 64.3212 185.583 58.275 186.365 57.591L187.081 58.4151C184.236 60.8874 179.629 65.3595 179.398 66.8127C179.064 68.8235 177.097 69.5927 176.23 69.8344C175.955 72.2408 174.509 84.6435 172.114 87.8273C169.661 91.0715 167.217 108.889 167.491 115.726C167.727 121.654 166.144 132.884 160.884 137.784C159.19 139.429 156.919 140.343 154.56 140.328Z" fill="#353146"/>
<g opacity="0.1">
<path opacity="0.1" d="M199.208 28.1486C199.658 26.4839 200.201 24.8082 200.58 23.1216C200.127 24.8165 199.581 26.4839 199.208 28.1486Z" fill="black"/>
<path opacity="0.1" d="M194.618 41.2298C194.069 40.0239 194.362 38.6284 194.373 37.3044C194.384 35.9803 193.896 34.431 192.623 34.0602C190.077 33.3487 188.321 38.1038 185.819 37.2439C183.898 36.5874 184.406 33.6728 183.297 31.9889C182.422 30.6539 180.669 30.2803 179.308 29.4452C176.405 27.6624 176.493 24.811 175.148 22.1134C173.735 19.284 170.758 20.1191 168.168 21.7893C166.201 23.0584 164.508 24.7588 162.407 25.7724C160.588 26.6487 158.544 26.9674 156.527 27.0141C154.071 27.0718 151.399 26.635 149.712 24.8494C148.411 23.4759 147.942 21.4624 148.211 19.5752C148.164 19.7043 148.123 19.8334 148.082 19.9625C147.423 22.1244 147.808 24.6654 149.347 26.3081C151.034 28.0937 153.706 28.5277 156.162 28.4727C158.181 28.4261 160.223 28.1074 162.045 27.2311C164.152 26.2147 165.845 24.5171 167.806 23.2479C170.396 21.5778 173.376 20.7427 174.786 23.5721C176.131 26.2697 176.046 29.121 178.946 30.9039C180.317 31.728 182.06 32.1125 182.938 33.4476C184.035 35.137 183.55 38.0461 185.459 38.7026C187.959 39.5597 189.715 34.8074 192.261 35.5188C193.534 35.8759 194.025 37.4417 194.011 38.763C193.998 40.0843 193.712 41.4826 194.255 42.6885C196.365 42.5924 198.975 42.1391 199.586 40.1063C199.671 39.8146 199.709 39.5116 199.702 39.2081C198.81 40.7491 196.516 41.1447 194.618 41.2298Z" fill="black"/>
</g>
<path opacity="0.1" d="M244.205 108.916L247.39 112.289C247.39 112.289 249.939 130.878 251.212 132.617C252.485 134.356 255.492 141.273 252.669 146.468C252.669 146.468 251.758 149.294 252.304 150.478C252.85 151.662 248.211 157.588 248.211 157.588C248.211 157.588 242.111 163.054 240.836 163.875C239.56 164.697 232.827 171.257 230.552 171.347C228.278 171.438 227.534 174.265 227.534 174.265L214.699 174.721C214.699 174.721 207.61 174.35 206.068 175.352C206.068 175.352 206.891 164.507 198.97 157.398L209.072 153.753C209.072 153.753 212.897 152.105 214.079 150.382C214.823 149.326 215.878 148.53 217.097 148.105C217.097 148.105 219.918 146.1 220.008 145.006C220.099 143.913 223.457 142.572 223.457 142.572L221.556 126.324L222.557 99.3483C222.557 99.3483 225.743 76.7459 232.478 78.0232C239.214 79.3006 244.205 108.916 244.205 108.916Z" fill="black"/>
<path d="M245.302 108.916L248.487 112.289C248.487 112.289 251.036 130.878 252.309 132.617C253.582 134.356 256.589 141.273 253.766 146.468C253.766 146.468 252.858 149.294 253.404 150.478C253.95 151.662 249.307 157.588 249.307 157.588C249.307 157.588 243.208 163.054 241.932 163.875C240.656 164.697 233.923 171.257 231.649 171.347C229.374 171.438 228.631 174.265 228.631 174.265L215.796 174.721C215.796 174.721 208.701 174.35 207.164 175.352C207.164 175.352 207.987 164.507 200.066 157.398L210.169 153.753C210.169 153.753 213.993 152.105 215.176 150.382C215.92 149.326 216.975 148.53 218.194 148.105C218.194 148.105 221.014 146.1 221.105 145.006C221.196 143.913 224.554 142.572 224.554 142.572L222.652 126.324L223.654 99.3483C223.654 99.3483 226.839 76.7459 233.575 78.0232C240.311 79.3006 245.302 108.916 245.302 108.916Z" fill="#E8F5FF"/>
<path opacity="0.1" d="M233.46 136.166C233.46 136.166 242.835 133.694 245.293 136.716C247.752 139.737 233.46 136.166 233.46 136.166Z" fill="black"/>
<path opacity="0.1" d="M231.276 140.312C234.462 142.545 244.292 142.636 244.292 142.636L231.276 140.312Z" fill="black"/>
<path opacity="0.1" d="M236.1 151.475C236.374 151.566 242.857 158.494 245.579 156.398C248.301 154.302 236.1 151.475 236.1 151.475Z" fill="black"/>
<path opacity="0.1" d="M148.784 93.3323C148.784 93.3323 150.688 106.458 149.75 111.803C148.812 117.149 152.236 123.772 152.236 123.772L148.784 93.3323Z" fill="black"/>
<path d="M106.631 98.6698C104.436 100.392 102.833 104.469 101.673 108.949C99.648 116.764 98.9868 125.827 98.9868 125.827C98.9868 125.827 81.5095 121.816 82.7826 119.995C83.5838 118.849 82.5082 110.218 81.6111 103.96C81.076 100.263 80.5986 97.3924 80.5986 97.3924C80.5986 97.3924 112.639 93.9284 106.631 98.6698Z" fill="#FFCCD0"/>
<path opacity="0.1" d="M106.631 98.3044C104.436 100.029 102.833 104.103 101.673 108.584C98.1907 109.642 94.4874 109.738 90.9554 108.86C87.4234 107.982 84.1946 106.164 81.6111 103.598C81.076 99.8976 80.5986 97.027 80.5986 97.027C80.5986 97.027 112.639 93.5658 106.631 98.3044Z" fill="black"/>
<path d="M116.025 88.4866C116.027 93.2645 114.34 97.889 111.264 101.542C108.187 105.194 103.92 107.64 99.2158 108.445C94.5119 109.25 89.6751 108.363 85.5616 105.941C81.448 103.519 78.3229 99.718 76.7393 95.2108C75.1557 90.7036 75.2157 85.7809 76.9087 81.3137C78.6017 76.8466 81.8186 73.1231 85.9899 70.8024C90.1613 68.4816 95.0182 67.7131 99.7011 68.6329C104.384 69.5528 108.591 72.1016 111.577 75.8284C114.455 79.4183 116.024 83.8835 116.025 88.4866Z" fill="#FFCCD0"/>
<path opacity="0.1" d="M131.96 215.003H126.198L125.713 204.814L125.205 194.268C125.205 194.268 126.514 194.073 128.599 193.782L129.441 193.669H129.51C129.965 195.809 130.415 198.007 130.849 200.202C131.57 204.098 131.946 208.051 131.971 212.014C131.971 212.289 131.971 212.563 131.971 212.822C131.987 213.555 131.971 214.289 131.96 215.003Z" fill="black"/>
<path d="M130.854 215.003H58.5967C58.9095 214.291 59.118 213.86 59.118 213.86C59.118 213.86 64.8989 188.538 67.8374 177.825C67.8383 177.816 67.8383 177.806 67.8374 177.797C68.2046 176.342 68.6478 174.907 69.1654 173.498C69.1988 173.402 69.242 173.31 69.2943 173.224C70.7485 170.856 72.5703 168.304 70.0214 164.658C67.4725 161.013 68.3752 144.973 68.3752 144.973C68.3752 144.973 71.4701 131.301 74.746 124.011C75.2432 122.882 75.9488 121.856 76.8257 120.989C77.1109 120.71 77.4152 120.451 77.7366 120.215C77.981 120.031 78.2356 119.861 78.4994 119.706L78.5515 119.673C79.9277 118.892 81.4559 118.417 83.032 118.281C84.1515 118.163 85.2816 118.195 86.393 118.374C91.7048 119.154 95.9575 120.459 99.3377 121.945C108.499 125.975 111.273 131.376 111.328 131.488L111.35 131.535C111.717 132.395 117.095 144.965 119.032 150.83C119.534 152.357 119.808 153.431 119.699 153.725C119.15 155.181 123.885 173.408 123.885 173.408C123.885 173.408 126.08 182.198 128.275 192.502C128.371 192.931 128.462 193.359 128.55 193.793C128.942 195.664 129.332 197.57 129.708 199.474C130.436 203.397 130.811 207.378 130.83 211.368C130.87 212.612 130.878 213.823 130.854 215.003Z" fill="#FF748E"/>
<path opacity="0.1" d="M82.6012 112.012C82.6012 112.012 77.616 110.089 77.6763 113.006C77.7367 115.924 78.8918 117.319 78.5269 117.745C78.162 118.171 78.708 120.723 78.708 120.723C78.708 120.723 85.4437 120.723 88.5386 122.118C91.6335 123.514 103.042 126.31 104.499 127.162C105.956 128.013 111.358 131.832 111.358 131.832L111.843 124.602C111.843 124.602 106.26 119.984 97.0989 117.616C87.9377 115.248 82.6012 112.012 82.6012 112.012Z" fill="black"/>
<path d="M82.6012 111.647C82.6012 111.647 77.616 109.724 77.6763 112.641C77.7367 115.558 78.8918 116.954 78.5269 117.38C78.162 117.805 78.708 120.357 78.708 120.357C78.708 120.357 85.4437 120.357 88.5386 121.756C91.6335 123.154 103.042 125.948 104.499 126.796C105.956 127.645 111.358 131.466 111.358 131.466L111.849 124.258C111.849 124.258 106.266 119.64 97.1044 117.272C87.9432 114.905 82.6012 111.647 82.6012 111.647Z" fill="#FF748E"/>
<path opacity="0.1" d="M97.6504 129.046C97.6504 129.046 107.176 139.372 106.691 142.232C106.205 145.091 97.6504 129.046 97.6504 129.046Z" fill="black"/>
<path opacity="0.1" d="M82.1766 166.348C82.1766 166.348 75.1939 172.79 73.1361 173.155C71.0784 173.52 74.7137 174.734 77.0788 173.765C79.4439 172.795 84.4867 170.243 84.4867 170.243L82.1766 166.348Z" fill="black"/>
<path d="M133.692 215.003H117.408C115.131 213.025 112.977 211.193 111.605 210.091C109.41 208.328 107.827 205.732 106.817 203.644C106.59 203.169 106.392 202.724 106.225 202.32C105.925 201.624 105.661 200.914 105.435 200.191L117.493 193.021C118.16 193.589 118.786 194.202 119.367 194.856L119.512 195.024C120.182 195.815 120.772 196.713 120.824 197.449C120.884 198.306 123.266 201.622 125.699 204.806C128.169 208.045 130.698 211.14 130.866 211.349C130.866 211.349 131.283 211.918 131.963 212.791C132.443 213.423 133.036 214.181 133.692 215.003Z" fill="#FFCCD0"/>
<path opacity="0.1" d="M111.578 75.8284C110.999 77.1359 110.48 78.493 110.403 79.9489C110.187 84.1518 110.538 93.5493 105.89 95.659C103.588 96.6974 101.124 94.4174 98.6 94.3624C96.7837 94.324 95.1183 95.4777 94.0098 96.9199C92.9014 98.3621 92.2127 100.073 91.4088 101.705C90.677 103.186 89.8341 104.61 88.8874 105.963C88.6044 106.377 88.2927 106.771 87.9545 107.141C85.1205 105.944 82.5968 104.115 80.5758 101.793C78.5547 99.4714 77.0897 96.7184 76.2924 93.744C75.495 90.7695 75.3863 87.652 75.9746 84.6291C76.5629 81.6062 77.8326 78.7576 79.687 76.3004C81.5414 73.8432 83.9315 71.8422 86.6753 70.45C89.4191 69.0577 92.4441 68.3109 95.5198 68.2665C98.5955 68.222 101.641 68.881 104.424 70.1934C107.206 71.5058 109.653 73.4368 111.578 75.8393V75.8284Z" fill="black"/>
<path d="M110.039 79.2072C109.819 83.4102 110.173 92.8077 105.523 94.9146C103.221 95.953 100.757 93.6757 98.2327 93.6208C96.4164 93.5796 94.7537 94.7361 93.6425 96.1755C92.5313 97.6149 91.8481 99.3291 91.0415 100.964C90.3095 102.444 89.4666 103.868 88.5201 105.221C87.9549 106.024 87.3293 106.828 86.4595 107.279C84.945 108.07 83.1095 107.625 81.4852 107.117C79.3781 106.452 77.302 105.703 75.2571 104.87C75.304 104.561 75.3278 104.248 75.3284 103.936C75.268 104.051 75.2022 104.158 75.1363 104.274L75.0074 104.499C74.7742 104.911 74.5465 105.323 74.3379 105.746C74.2584 105.908 74.1815 106.076 74.1129 106.243C73.837 106.867 73.6637 107.531 73.5999 108.21C73.46 110.042 74.3626 111.781 75.1638 113.429C78.2449 119.805 80.1491 127.261 77.8306 133.95C76.8265 136.859 75.087 139.444 73.8166 142.254C71.596 147.231 70.9423 152.768 71.9427 158.126C72.5765 161.455 73.8468 164.752 73.534 168.128C72.9853 173.938 67.9808 178.262 62.9681 181.234C60.2601 182.833 56.9457 184.256 54.0703 182.992C55.9031 180.849 56.375 177.885 56.7701 175.089C57.8511 167.461 58.9349 159.83 60.0214 152.195C60.4549 149.157 60.8875 146.119 61.3191 143.081C62.1258 137.372 62.9434 131.601 62.4386 125.857C62.0709 121.624 61.0338 117.13 62.8666 113.298C63.8351 111.268 65.5609 109.586 66.0986 107.4C66.5404 105.622 66.1288 103.733 66.4196 101.922C66.5788 101.099 66.8483 100.3 67.2208 99.5488C67.6951 98.5291 68.3143 97.5835 69.0591 96.7414C68.3238 96.5271 67.6378 96.2332 67.2208 95.6179C68.4006 94.8487 68.5789 93.1153 68.0439 91.8133C67.5089 90.5112 66.4389 89.5195 65.4758 88.4921C64.5128 87.4647 63.5854 86.267 63.4647 84.8661C63.2315 82.1987 65.8929 80.133 66.362 77.5013C66.8367 74.823 64.96 72.2188 65.1109 69.5075C65.2865 66.2304 68.2936 63.8487 71.2623 62.467C75.7421 60.3906 80.6908 59.5377 85.6063 59.9947C89.6066 60.3737 93.4779 61.6127 97.4672 62.0934C99.8734 62.3681 102.313 62.3955 104.702 62.8186C107.092 63.2416 109.487 64.1344 111.169 65.8897C115.603 70.5184 110.291 74.3285 110.039 79.2072Z" fill="#FFE0D0"/>
<path opacity="0.1" d="M106.328 203.647C104.929 203.04 102.383 203.402 98.0123 202.07C93.6417 200.738 92.7993 194.716 92.7993 194.716V194.697C92.7472 194.56 92.3411 193.664 89.592 190.527C86.5547 187.063 79.9891 169.567 79.9891 169.567C79.9891 169.567 74.167 163.307 74.3508 160.999C74.5346 158.692 73.3164 152.552 73.4371 145.685C73.5579 138.817 86.5437 134.263 86.5437 134.263C111.547 129.826 105.659 158.686 104.992 160.873C104.326 163.06 107.785 168.966 107.785 168.966C107.297 171.537 109.788 175.517 109.788 175.517C109.788 175.517 110.392 179.039 110.515 180.377C110.522 180.439 110.536 180.499 110.556 180.558C110.957 181.819 114.222 182.962 115.55 183.657C116.947 184.387 121.438 190.766 121.438 190.766C122.406 195.45 107.722 204.262 106.328 203.647Z" fill="black"/>
<path d="M107.056 202.548C105.66 201.938 103.111 202.303 98.7428 200.968C94.3749 199.633 93.5298 193.617 93.5298 193.617V193.598C93.4804 193.458 93.0716 192.565 90.3225 189.428C87.2852 185.964 80.7196 168.466 80.7196 168.466C80.7196 168.466 74.8975 162.208 75.0785 159.901C75.2596 157.593 74.0469 151.454 74.1676 144.591C74.2884 137.729 87.266 133.178 87.266 133.178C112.269 128.741 106.381 157.601 105.715 159.788C105.048 161.975 108.508 167.881 108.508 167.881C108.019 170.452 110.511 174.432 110.511 174.432C110.511 174.432 111.114 177.954 111.24 179.292C111.245 179.354 111.258 179.415 111.279 179.473C111.679 180.734 114.944 181.877 116.275 182.572C117.669 183.3 122.163 189.681 122.163 189.681C123.137 194.356 108.453 203.169 107.056 202.548Z" fill="#FF748E"/>
<path opacity="0.1" d="M87.7598 148.245C87.7598 148.245 98.6824 159.782 101.533 159.782C104.384 159.782 87.7598 148.245 87.7598 148.245Z" fill="black"/>
<path d="M107.056 202.548C105.659 201.938 103.11 202.303 98.7423 200.968C94.3744 199.633 93.5293 193.617 93.5293 193.617V193.598C96.4239 191.675 103.755 186.244 106.644 184.258C108.677 182.866 110.337 180.819 111.308 179.462C111.709 180.723 114.974 181.866 116.305 182.561C117.698 183.289 122.193 189.67 122.193 189.67C123.136 194.356 108.452 203.169 107.056 202.548Z" fill="#FF748E"/>
<g opacity="0.1">
<path opacity="0.1" d="M67.2373 95.648C67.251 95.67 67.2702 95.6892 67.2867 95.7112C67.369 95.6068 67.4541 95.5025 67.5418 95.4036C67.4483 95.4946 67.3464 95.5765 67.2373 95.648Z" fill="black"/>
<path opacity="0.1" d="M73.6026 108.24C73.7179 106.716 74.5327 105.372 75.2955 104.032C74.7961 103.84 74.2968 103.645 73.8029 103.441C73.8499 103.133 73.8738 102.822 73.8743 102.51C73.1033 103.884 72.2637 105.235 72.1457 106.782C72.0058 108.617 72.9085 110.353 73.7096 112.001C76.7935 118.374 78.6949 125.829 76.3765 132.521C75.3696 135.427 73.6328 138.015 72.3625 140.825C70.1426 145.802 69.4899 151.338 70.4913 156.695C71.1196 160.027 72.3927 163.321 72.0799 166.697C71.5311 172.507 66.5294 176.83 61.5139 179.8C59.4644 181.014 57.0692 182.127 54.7782 182.047C54.5661 182.389 54.3295 182.715 54.0703 183.022C56.9484 184.294 60.2601 182.863 62.9681 181.259C67.9863 178.292 72.999 173.979 73.5478 168.158C73.8605 164.782 72.5875 161.488 71.9564 158.156C70.9548 152.799 71.6055 147.264 73.8221 142.287C75.0842 139.479 76.8402 136.889 77.8361 133.983C80.1546 127.291 78.2504 119.835 75.1693 113.462C74.3709 111.803 73.4627 110.075 73.6026 108.24Z" fill="black"/>
<path opacity="0.1" d="M111.163 65.9227C110.894 65.6455 110.604 65.3884 110.296 65.1535C113.622 69.4718 108.82 73.1418 108.582 77.7897C108.368 81.9926 108.719 91.3929 104.068 93.4971C101.769 94.5382 99.3025 92.2582 96.781 92.2033C94.962 92.1648 93.2993 93.3213 92.1881 94.7607C91.0769 96.2002 90.3937 97.9143 89.5898 99.546C88.8565 101.027 88.0127 102.45 87.0657 103.804C86.5169 104.609 85.8749 105.411 85.0024 105.864C83.4934 106.653 81.6579 106.21 80.0308 105.699C78.4487 105.201 76.8811 104.652 75.3282 104.051C75.325 104.337 75.3011 104.623 75.2568 104.905C77.3036 105.741 79.3806 106.49 81.4877 107.152C83.112 107.663 84.9475 108.106 86.4593 107.317C87.3291 106.864 87.9601 106.059 88.5226 105.254C89.4703 103.902 90.3132 102.48 91.044 100.999C91.8506 99.3675 92.5311 97.6506 93.645 96.2111C94.759 94.7717 96.4189 93.618 98.2352 93.6564C100.759 93.7114 103.226 95.9914 105.525 94.9503C110.176 92.8461 109.822 83.4458 110.039 79.2429C110.291 74.356 115.603 70.5486 111.163 65.9227Z" fill="black"/>
</g>
<path opacity="0.1" d="M75.0092 104.502C74.776 104.914 74.5483 105.326 74.3398 105.749C74.2602 105.911 74.1834 106.078 74.1148 106.246C72.6771 104.796 69.1762 101.348 67.2227 100.279C67.6976 99.2602 68.3167 98.3147 69.0609 97.472C69.0609 97.472 73.7169 99.9361 75.0092 104.502Z" fill="black"/>
<path d="M75.1382 104.276C74.0599 99.3894 69.0609 96.7441 69.0609 96.7441C68.3161 97.5862 67.697 98.5318 67.2227 99.5515C69.2832 100.681 73.0804 104.466 74.3398 105.749L75.1382 104.276Z" fill="#FF748E"/>
</g>
<defs>
<linearGradient id="paint0_linear_0_196" x1="200.298" y1="26.2092" x2="200.298" y2="21.1602" gradientUnits="userSpaceOnUse">
<stop stop-color="#808080" stop-opacity="0.25"/>
<stop offset="0.54" stop-color="#808080" stop-opacity="0.12"/>
<stop offset="1" stop-color="#808080" stop-opacity="0.1"/>
</linearGradient>
<linearGradient id="paint1_linear_0_196" x1="125873" y1="180892" x2="125873" y2="12612.1" gradientUnits="userSpaceOnUse">
<stop stop-color="#808080" stop-opacity="0.25"/>
<stop offset="0.54" stop-color="#808080" stop-opacity="0.12"/>
<stop offset="1" stop-color="#808080" stop-opacity="0.1"/>
</linearGradient>
<clipPath id="clip0_0_196">
<rect width="298" height="215" fill="white"/>
</clipPath>
</defs>
</svg>
