<svg width="375" height="90" viewBox="0 0 375 90" fill="none" xmlns="http://www.w3.org/2000/svg">
<path d="M112.655 66.7174C54.5381 74.2934 -69.8056 86.3044 -132.226 88.7065L-140.149 90L-174 88.7065L-161.036 -34.3587C-136.308 -34.3587 -60.4905 -35.2826 44.9524 -38.9783C150.395 -42.6739 346.252 -45.1993 431 -46L420.917 66.7174C337.369 61.7899 245.899 49.3478 112.655 66.7174Z" fill="url(#paint0_linear_0_495)"/>
<path d="M112.655 66.7174C54.5381 74.2934 -69.8056 86.3044 -132.226 88.7065L-140.149 90L-174 88.7065L-161.036 -34.3587C-136.308 -34.3587 -60.4905 -35.2826 44.9524 -38.9783C150.395 -42.6739 346.252 -45.1993 431 -46L420.917 66.7174C337.369 61.7899 245.899 49.3478 112.655 66.7174Z" fill="url(#paint1_linear_0_495)"/>
<defs>
<linearGradient id="paint0_linear_0_495" x1="-87.3286" y1="-46" x2="95.272" y2="390.993" gradientUnits="userSpaceOnUse">
<stop stop-color="#0089FF"/>
<stop offset="1" stop-color="#1FACE9" stop-opacity="0.18"/>
</linearGradient>
<linearGradient id="paint1_linear_0_495" x1="-287.372" y1="5.33598" x2="305.108" y2="209.455" gradientUnits="userSpaceOnUse">
<stop stop-color="#54E6D8"/>
<stop offset="1" stop-color="#3E4095"/>
</linearGradient>
</defs>
</svg>
