<svg width="375" height="142" viewBox="0 0 375 142" fill="none" xmlns="http://www.w3.org/2000/svg">
<g filter="url(#filter0_d_0_494)">
<path d="M174.221 42.1141C125.519 28.4104 21.3167 6.68478 -30.9929 2.33968L-37.6321 0L-66 2.33968L-55.1357 224.943C-34.4131 224.943 29.1229 226.614 117.486 233.299C205.849 239.984 369.98 244.552 441 246L432.55 42.1141C362.536 51.0272 285.882 73.5326 174.221 42.1141Z" fill="url(#paint0_linear_0_494)"/>
<path d="M174.221 42.1141C125.519 28.4104 21.3167 6.68478 -30.9929 2.33968L-37.6321 0L-66 2.33968L-55.1357 224.943C-34.4131 224.943 29.1229 226.614 117.486 233.299C205.849 239.984 369.98 244.552 441 246L432.55 42.1141C362.536 51.0272 285.882 73.5326 174.221 42.1141Z" fill="url(#paint1_linear_0_494)"/>
</g>
<defs>
<filter id="filter0_d_0_494" x="-70" y="0" width="515" height="254" filterUnits="userSpaceOnUse" color-interpolation-filters="sRGB">
<feFlood flood-opacity="0" result="BackgroundImageFix"/>
<feColorMatrix in="SourceAlpha" type="matrix" values="0 0 0 0 0 0 0 0 0 0 0 0 0 0 0 0 0 0 127 0" result="hardAlpha"/>
<feOffset dy="4"/>
<feGaussianBlur stdDeviation="2"/>
<feColorMatrix type="matrix" values="0 0 0 0 0 0 0 0 0 0 0 0 0 0 0 0 0 0 0.25 0"/>
<feBlend mode="normal" in2="BackgroundImageFix" result="effect1_dropShadow_0_494"/>
<feBlend mode="normal" in="SourceGraphic" in2="effect1_dropShadow_0_494" result="shape"/>
</filter>
<linearGradient id="paint0_linear_0_494" x1="-106" y1="160" x2="380.951" y2="64.7176" gradientUnits="userSpaceOnUse">
<stop stop-color="#0089FF"/>
<stop offset="0.0001" stop-color="#00B0FF"/>
<stop offset="1" stop-color="#6DCDF8"/>
</linearGradient>
<linearGradient id="paint1_linear_0_494" x1="-161.008" y1="153.142" x2="380.633" y2="66.6897" gradientUnits="userSpaceOnUse">
<stop stop-color="#54E6D8"/>
<stop offset="1" stop-color="#3E4095"/>
</linearGradient>
</defs>
</svg>
